<svg xmlns="http://www.w3.org/2000/svg" width="176.905" height="52.236" viewBox="0 0 176.905 52.236">
  <g id="Group_894" data-name="Group 894" transform="translate(-83 -30.519)">
    <g id="logo-new-color" transform="translate(82.999 30.52)">
      <g id="Group_3" data-name="Group 3" transform="translate(42.769 4.662)">
        <g id="Group_2" data-name="Group 2">
          <g id="Group_1" data-name="Group 1">
            <path id="Path_1" data-name="Path 1" d="M419.409,77.978h-3.253a.7.7,0,0,0-.7.706v2.828a.706.706,0,0,0,.705.706h3.253a.706.706,0,0,0,.7-.706V78.684a.705.705,0,0,0-.7-.706Z" transform="translate(-372.244 -76.525)" fill="#ee1d42"/>
            <path id="Path_2" data-name="Path 2" d="M340.178,79.933H331.7a.7.7,0,0,1-.7-.707V77.6c0-1.127.583-1.6,1.656-1.6h.681a.7.7,0,0,0,.7-.705V72.469a.7.7,0,0,0-.7-.7h-2.1c-3.74,0-5.1,2.561-5.1,4.964,0,1.752-.465,3.2-2.679,3.2h-2.481a.706.706,0,0,1-.706-.707V77.6c0-1.127.584-1.6,1.657-1.6h.681a.7.7,0,0,0,.7-.705V72.469a.7.7,0,0,0-.7-.7h-2.1c-3.741,0-5.1,2.561-5.1,4.964,0,1.752-.466,3.2-2.681,3.2a.669.669,0,0,0-.7.695v2.54a.7.7,0,0,0,.7.7H314.7a.706.706,0,0,1,.706.706V99.247a.722.722,0,0,0,.721.721h3.413a.723.723,0,0,0,.721-.721V84.568a.7.7,0,0,1,.706-.705h4.455a.706.706,0,0,1,.7.706V99.247a.723.723,0,0,0,.721.721h3.414a.723.723,0,0,0,.721-.721V84.568a.7.7,0,0,1,.7-.7h3.627a.7.7,0,0,1,.7.705V99.263a.705.705,0,0,0,.7.705h3.444a.7.7,0,0,0,.7-.705V80.638A.707.707,0,0,0,340.178,79.933Z" transform="translate(-293.013 -71.764)" fill="#ee1d42"/>
            <path id="Path_3" data-name="Path 3" d="M459.32,114.811H456.1a.654.654,0,0,0-.745.744v.566c0,1.619-1.155,2.466-2.851,2.466a2.579,2.579,0,0,1-2.85-2.83v-7.6a2.623,2.623,0,0,1,2.85-2.829c1.7,0,2.851.849,2.851,2.466v.181c0,.534.057.744.745.744h3.183c.687,0,.889-.355.889-.889,0-4.523-2.928-6.741-7.668-6.741-4.855,0-7.706,2.39-7.706,7.938v5.856c0,5.549,2.85,7.938,7.706,7.938s7.707-2.551,7.707-7.125a.877.877,0,0,0-.891-.885Z" transform="translate(-394.728 -94.236)" fill="#ee1d42"/>
            <path id="Path_4" data-name="Path 4" d="M678.759,82.217h3.254a.706.706,0,0,0,.705-.706V78.684a.706.706,0,0,0-.7-.706h-3.254a.706.706,0,0,0-.7.706v2.828A.705.705,0,0,0,678.759,82.217Z" transform="translate(-573.443 -76.525)" fill="#ee1d42"/>
            <path id="Path_5" data-name="Path 5" d="M239.455,71.765c-5.162,0-8.786,2.466-8.786,9.324V91.03c0,6.859,3.623,9.324,8.786,9.324s8.784-2.466,8.784-9.324V81.089C248.239,74.231,244.617,71.765,239.455,71.765Zm3.468,19.959c0,3.083-1.35,3.93-3.468,3.93s-3.468-.847-3.468-3.93V80.4c0-3.082,1.348-3.93,3.468-3.93s3.468.848,3.468,3.93Z" transform="translate(-230.669 -71.765)" fill="#ee1d42"/>
            <path id="Path_6" data-name="Path 6" d="M604.065,87.387a.745.745,0,0,1-.019-.864l6.506-12.3c.229-.433.12-.815-.419-.815H606.27a1.281,1.281,0,0,0-1.043.646l-5.352,10.724c-.174.346-.4.727-.793.727-.327,0-.507-.216-.507-.59v-10.8a.705.705,0,0,0-.7-.706h-3.906a.706.706,0,0,0-.706.706v26.408a.705.705,0,0,0,.705.7h3.907a.7.7,0,0,0,.7-.7V89.5c0-.34.18-.492.456-.492a.736.736,0,0,1,.6.422l6.224,11.17a1.264,1.264,0,0,0,1.072.63h4.116c.482,0,.8-.567.476-1.125Z" transform="translate(-508.475 -73.024)" fill="#ee1d42"/>
            <path id="Path_7" data-name="Path 7" d="M681.779,106.7h-3.412a.723.723,0,0,0-.721.72v18.593a.723.723,0,0,0,.721.721h3.412a.723.723,0,0,0,.721-.721V107.42A.723.723,0,0,0,681.779,106.7Z" transform="translate(-573.131 -98.531)" fill="#ee1d42"/>
            <path id="Path_8" data-name="Path 8" d="M715.442,108.683a.705.705,0,0,0-.7-.7h-.685a1.678,1.678,0,0,1-1.77-1.886V96.746h0a.706.706,0,0,1,.706-.7H714.7a.7.7,0,0,0,.7-.7v-2.53a.705.705,0,0,0-.7-.7h-1.712a.707.707,0,0,1-.706-.706h0V88.37a.706.706,0,0,0-.7-.7h-3.251a.706.706,0,0,0-.706.7v.371c0,2.4-.543,3.376-2.673,3.376a.7.7,0,0,0-.7.7v2.52a.706.706,0,0,0,.7.706h1.773a.7.7,0,0,1,.706.7v10.732c0,3.238,2.37,4.777,5.24,4.777h2.068a.706.706,0,0,0,.7-.706V108.68Z" transform="translate(-593.511 -83.942)" fill="#ee1d42"/>
            <path id="Path_9" data-name="Path 9" d="M522.585,113.7h9.15a.7.7,0,0,0,.705-.706v-4.769c0-4.277-3.2-7.129-7.706-7.129-4.623,0-7.707,2.852-7.707,7.437v6.858c0,4.585,3.084,7.437,7.707,7.437,4.553,0,7.1-2.2,7.624-5.985h0a.723.723,0,0,0-.8-.873h-3.116c-.542,0-.829.341-.943.873h0a2.529,2.529,0,0,1-2.762,2.054,2.675,2.675,0,0,1-2.85-3.006V114.4a.705.705,0,0,1,.7-.7Zm-.7-5.668c0-1.849.885-3.006,2.85-3.006s2.851,1.157,2.851,3.006v1.032a.7.7,0,0,1-.721.7H522.6a.72.72,0,0,1-.719-.721V108.03h0Z" transform="translate(-450.066 -94.234)" fill="#ee1d42"/>
          </g>
        </g>
      </g>
      <g id="Group_4" data-name="Group 4">
        <path id="Path_10" data-name="Path 10" d="M66.718,89.74A18.957,18.957,0,1,1,85.675,70.783,18.957,18.957,0,0,1,66.718,89.74Zm0-34.755a15.8,15.8,0,1,0,15.8,15.8,15.8,15.8,0,0,0-15.8-15.8Zm0,23.4c1,.056,2.721.992,5.824,3.284a1.2,1.2,0,0,0,1.56.053,13.031,13.031,0,0,0,2.592-2.36.849.849,0,0,0-.173-1.319c-4.075-3.154-4.4-3.136-6.076-3.86-.612-.264-.539-.836.157-.836h7.981a.967.967,0,0,0,1.078-.934h0a13.318,13.318,0,0,0,.076-1.422,13.172,13.172,0,0,0-.148-1.966v0a1.012,1.012,0,0,0-1.124-.944H54.972a1.014,1.014,0,0,0-1.125.944h0a13.275,13.275,0,0,0-.071,3.39h0a.967.967,0,0,0,1.078.934h7.981c.694,0,.768.571.158.836-1.676.724-2,.706-6.077,3.86a.848.848,0,0,0-.173,1.319,12.97,12.97,0,0,0,2.591,2.36,1.2,1.2,0,0,0,1.56-.053c3.106-2.295,4.828-3.231,5.824-3.287Zm0-12.081A6.76,6.76,0,0,0,73.4,60.527a1.042,1.042,0,0,0-.5-1.2,13.043,13.043,0,0,0-12.378,0,1.043,1.043,0,0,0-.5,1.2,6.763,6.763,0,0,0,6.7,5.773Z" transform="translate(-47.76 -51.827)" fill="#ee1d42"/>
      </g>
    </g>
    <path id="YOUR_PEOPLE_OUR_PASSION" data-name="YOUR PEOPLE, OUR PASSION" d="M6.891-8.4,4.137-3.053V0H2.742V-3.023L.059-8.4H1.646L3.3-4.8q.029.064.176.486h.018A3.326,3.326,0,0,1,3.686-4.8L5.414-8.4ZM11.373.141A3.779,3.779,0,0,1,8.463-1.037,4.326,4.326,0,0,1,7.371-4.1,4.583,4.583,0,0,1,8.484-7.336a3.911,3.911,0,0,1,3.023-1.207,3.7,3.7,0,0,1,2.851,1.172,4.341,4.341,0,0,1,1.081,3.064,4.6,4.6,0,0,1-1.107,3.252A3.84,3.84,0,0,1,11.373.141Zm.064-7.459a2.338,2.338,0,0,0-1.878.861,3.408,3.408,0,0,0-.724,2.268,3.44,3.44,0,0,0,.7,2.256,2.267,2.267,0,0,0,1.84.855,2.375,2.375,0,0,0,1.9-.814,3.4,3.4,0,0,0,.7-2.279A3.562,3.562,0,0,0,13.3-6.5,2.288,2.288,0,0,0,11.437-7.318ZM23.671-3.4q0,3.539-3.352,3.539-3.211,0-3.211-3.4V-8.4H18.5v4.852q0,2.473,1.922,2.473,1.852,0,1.852-2.385V-8.4h1.395ZM32.366,0H30.737L29.395-2.25a4.7,4.7,0,0,0-.354-.53,2.134,2.134,0,0,0-.352-.36,1.186,1.186,0,0,0-.39-.205,1.622,1.622,0,0,0-.475-.064h-.562V0H25.873V-8.4h2.766a4,4,0,0,1,1.09.141,2.533,2.533,0,0,1,.867.425,1.982,1.982,0,0,1,.577.709,2.233,2.233,0,0,1,.208.993,2.432,2.432,0,0,1-.132.817,2.126,2.126,0,0,1-.375.662,2.293,2.293,0,0,1-.586.5,2.928,2.928,0,0,1-.771.316v.023a2.163,2.163,0,0,1,.4.284q.17.155.322.319a3.83,3.83,0,0,1,.3.372q.149.208.331.483Zm-5.1-7.271v2.73h1.16a1.72,1.72,0,0,0,.595-.1,1.361,1.361,0,0,0,.472-.287,1.3,1.3,0,0,0,.311-.457,1.567,1.567,0,0,0,.111-.6,1.2,1.2,0,0,0-.381-.943,1.593,1.593,0,0,0-1.1-.34ZM38.488-3.047V0H37.1V-8.4h2.549a3.376,3.376,0,0,1,2.244.674,2.35,2.35,0,0,1,.8,1.9,2.623,2.623,0,0,1-.832,2,3.159,3.159,0,0,1-2.25.779Zm0-4.207v3.07h.9A2,2,0,0,0,40.755-4.6a1.485,1.485,0,0,0,.469-1.172q0-1.482-1.723-1.482ZM49.057,0H44.341V-8.4H48.87v1.184H45.735V-4.84h2.889v1.178H45.735v2.484h3.322Zm5.185.141a3.779,3.779,0,0,1-2.909-1.178A4.326,4.326,0,0,1,50.241-4.1a4.583,4.583,0,0,1,1.113-3.234,3.911,3.911,0,0,1,3.023-1.207,3.7,3.7,0,0,1,2.851,1.172,4.341,4.341,0,0,1,1.081,3.064A4.6,4.6,0,0,1,57.2-1.055,3.84,3.84,0,0,1,54.242.141Zm.064-7.459a2.338,2.338,0,0,0-1.878.861,3.408,3.408,0,0,0-.724,2.268,3.44,3.44,0,0,0,.7,2.256,2.267,2.267,0,0,0,1.84.855,2.375,2.375,0,0,0,1.9-.814,3.4,3.4,0,0,0,.7-2.279A3.562,3.562,0,0,0,56.173-6.5,2.288,2.288,0,0,0,54.307-7.318Zm7.16,4.271V0H60.078V-8.4h2.549a3.376,3.376,0,0,1,2.244.674,2.35,2.35,0,0,1,.8,1.9,2.623,2.623,0,0,1-.832,2,3.159,3.159,0,0,1-2.25.779Zm0-4.207v3.07h.9A2,2,0,0,0,63.734-4.6,1.485,1.485,0,0,0,64.2-5.771q0-1.482-1.723-1.482ZM71.972,0H67.32V-8.4h1.395v7.225h3.258ZM78.13,0H73.413V-8.4h4.529v1.184H74.807V-4.84H77.7v1.178H74.807v2.484H78.13Zm2.841-1.4-.908,2.924h-1.02L79.688-1.4ZM89.964.141a3.779,3.779,0,0,1-2.909-1.178A4.326,4.326,0,0,1,85.962-4.1a4.583,4.583,0,0,1,1.113-3.234A3.911,3.911,0,0,1,90.1-8.543a3.7,3.7,0,0,1,2.851,1.172A4.341,4.341,0,0,1,94.03-4.307a4.6,4.6,0,0,1-1.107,3.252A3.84,3.84,0,0,1,89.964.141Zm.064-7.459a2.338,2.338,0,0,0-1.878.861,3.408,3.408,0,0,0-.724,2.268,3.44,3.44,0,0,0,.7,2.256,2.267,2.267,0,0,0,1.84.855,2.375,2.375,0,0,0,1.9-.814,3.4,3.4,0,0,0,.7-2.279A3.562,3.562,0,0,0,91.895-6.5,2.288,2.288,0,0,0,90.028-7.318ZM102.262-3.4q0,3.539-3.352,3.539-3.211,0-3.211-3.4V-8.4h1.395v4.852q0,2.473,1.922,2.473,1.852,0,1.852-2.385V-8.4h1.395ZM110.957,0h-1.629l-1.342-2.25a4.7,4.7,0,0,0-.354-.53,2.134,2.134,0,0,0-.352-.36,1.186,1.186,0,0,0-.39-.205,1.622,1.622,0,0,0-.475-.064h-.562V0h-1.389V-8.4h2.766a4,4,0,0,1,1.09.141,2.533,2.533,0,0,1,.867.425,1.982,1.982,0,0,1,.577.709,2.233,2.233,0,0,1,.208.993,2.432,2.432,0,0,1-.132.817,2.126,2.126,0,0,1-.375.662,2.293,2.293,0,0,1-.586.5,2.928,2.928,0,0,1-.771.316v.023a2.163,2.163,0,0,1,.4.284q.17.155.322.319a3.83,3.83,0,0,1,.3.372q.149.208.331.483Zm-5.1-7.271v2.73h1.16a1.72,1.72,0,0,0,.595-.1,1.361,1.361,0,0,0,.472-.287,1.3,1.3,0,0,0,.311-.457,1.567,1.567,0,0,0,.111-.6,1.2,1.2,0,0,0-.381-.943,1.593,1.593,0,0,0-1.1-.34Zm11.226,4.225V0H115.69V-8.4h2.549a3.376,3.376,0,0,1,2.244.674,2.35,2.35,0,0,1,.8,1.9,2.623,2.623,0,0,1-.832,2,3.159,3.159,0,0,1-2.25.779Zm0-4.207v3.07h.9a2,2,0,0,0,1.365-.416,1.485,1.485,0,0,0,.469-1.172q0-1.482-1.723-1.482ZM129.008,0h-1.529l-.756-2.139h-3.3L122.692,0h-1.523l3.146-8.4h1.57Zm-2.654-3.275-1.166-3.352a3.97,3.97,0,0,1-.111-.527h-.023a3.43,3.43,0,0,1-.117.527l-1.154,3.352ZM130-.334V-1.77a2.217,2.217,0,0,0,.46.316,3.554,3.554,0,0,0,.565.237,4.456,4.456,0,0,0,.6.149,3.186,3.186,0,0,0,.551.053,2.351,2.351,0,0,0,1.31-.293.964.964,0,0,0,.431-.85.927.927,0,0,0-.144-.519,1.506,1.506,0,0,0-.4-.4,4.217,4.217,0,0,0-.606-.349q-.349-.167-.747-.349-.428-.229-.8-.463a3.43,3.43,0,0,1-.642-.519,2.17,2.17,0,0,1-.428-.642A2.09,2.09,0,0,1,130-6.234a1.934,1.934,0,0,1,.267-1.028,2.252,2.252,0,0,1,.7-.721,3.223,3.223,0,0,1,.993-.422,4.716,4.716,0,0,1,1.137-.138,4.588,4.588,0,0,1,1.922.3v1.377a3.07,3.07,0,0,0-1.84-.516,3.3,3.3,0,0,0-.618.059,1.838,1.838,0,0,0-.551.193,1.192,1.192,0,0,0-.4.346.847.847,0,0,0-.152.51.964.964,0,0,0,.117.486,1.255,1.255,0,0,0,.343.375,3.5,3.5,0,0,0,.551.331q.325.161.753.349.439.229.829.48a3.908,3.908,0,0,1,.686.557,2.446,2.446,0,0,1,.469.677,1.987,1.987,0,0,1,.173.847,2.1,2.1,0,0,1-.258,1.078,2.078,2.078,0,0,1-.694.715,3.093,3.093,0,0,1-1,.4,5.666,5.666,0,0,1-1.2.123,5.115,5.115,0,0,1-.519-.032q-.308-.032-.63-.094a5.794,5.794,0,0,1-.609-.149A1.929,1.929,0,0,1,130-.334Zm6.761,0V-1.77a2.217,2.217,0,0,0,.46.316,3.554,3.554,0,0,0,.565.237,4.456,4.456,0,0,0,.6.149,3.186,3.186,0,0,0,.551.053,2.351,2.351,0,0,0,1.31-.293.964.964,0,0,0,.431-.85.927.927,0,0,0-.144-.519,1.506,1.506,0,0,0-.4-.4,4.217,4.217,0,0,0-.606-.349q-.349-.167-.747-.349-.428-.229-.8-.463a3.43,3.43,0,0,1-.642-.519,2.17,2.17,0,0,1-.428-.642,2.09,2.09,0,0,1-.155-.838,1.934,1.934,0,0,1,.267-1.028,2.252,2.252,0,0,1,.7-.721,3.223,3.223,0,0,1,.993-.422,4.716,4.716,0,0,1,1.137-.138,4.588,4.588,0,0,1,1.922.3v1.377a3.07,3.07,0,0,0-1.84-.516,3.3,3.3,0,0,0-.618.059,1.838,1.838,0,0,0-.551.193,1.192,1.192,0,0,0-.4.346.847.847,0,0,0-.152.51.964.964,0,0,0,.117.486,1.255,1.255,0,0,0,.343.375,3.5,3.5,0,0,0,.551.331q.325.161.753.349.439.229.829.48a3.908,3.908,0,0,1,.686.557,2.446,2.446,0,0,1,.469.677,1.987,1.987,0,0,1,.173.847,2.1,2.1,0,0,1-.258,1.078,2.078,2.078,0,0,1-.694.715,3.093,3.093,0,0,1-1,.4,5.666,5.666,0,0,1-1.2.123,5.115,5.115,0,0,1-.519-.032q-.308-.032-.63-.094a5.794,5.794,0,0,1-.609-.149A1.929,1.929,0,0,1,136.765-.334ZM145.343,0h-1.436V-8.4h1.436ZM151.1.141a3.779,3.779,0,0,1-2.909-1.178A4.326,4.326,0,0,1,147.1-4.1a4.583,4.583,0,0,1,1.113-3.234,3.911,3.911,0,0,1,3.023-1.207,3.7,3.7,0,0,1,2.851,1.172,4.341,4.341,0,0,1,1.081,3.064,4.6,4.6,0,0,1-1.107,3.252A3.84,3.84,0,0,1,151.1.141Zm.064-7.459a2.338,2.338,0,0,0-1.878.861,3.408,3.408,0,0,0-.724,2.268,3.44,3.44,0,0,0,.7,2.256,2.267,2.267,0,0,0,1.84.855,2.375,2.375,0,0,0,1.9-.814,3.4,3.4,0,0,0,.7-2.279,3.562,3.562,0,0,0-.677-2.326A2.288,2.288,0,0,0,151.166-7.318ZM164.062,0h-1.523l-4.014-6.176a2.738,2.738,0,0,1-.252-.486h-.035a8.65,8.65,0,0,1,.047,1.154V0h-1.348V-8.4h1.623l3.879,6.029q.246.375.316.516h.023a7.466,7.466,0,0,1-.059-1.131V-8.4h1.342Z" transform="translate(84.172 81.232)"/>
    <path id="TM" d="M4.392,0h-.95L2.659-1.312a2.741,2.741,0,0,0-.207-.309,1.245,1.245,0,0,0-.205-.21.692.692,0,0,0-.227-.12.946.946,0,0,0-.277-.038H1.415V0H.6V-4.9H2.218a2.334,2.334,0,0,1,.636.082,1.478,1.478,0,0,1,.506.248,1.156,1.156,0,0,1,.337.414,1.3,1.3,0,0,1,.121.579,1.419,1.419,0,0,1-.077.477,1.24,1.24,0,0,1-.219.386,1.338,1.338,0,0,1-.342.289,1.708,1.708,0,0,1-.449.185v.014a1.262,1.262,0,0,1,.232.166q.1.091.188.186a2.234,2.234,0,0,1,.176.217q.087.121.193.282ZM1.415-4.242v1.593h.677a1,1,0,0,0,.347-.058.794.794,0,0,0,.275-.167A.758.758,0,0,0,2.9-3.141a.914.914,0,0,0,.065-.352.7.7,0,0,0-.222-.55.93.93,0,0,0-.639-.2Z" transform="translate(250.999 40)"/>
    <g id="Ellipse_39" data-name="Ellipse 39" transform="translate(245.999 31)" fill="none" stroke="#030000" stroke-width="1">
      <circle cx="6.953" cy="6.953" r="6.953" stroke="none"/>
      <circle cx="6.953" cy="6.953" r="6.453" fill="none"/>
    </g>
  </g>
</svg>
